<?xml version="1.0" encoding="UTF-8"?>
<svg version="1.1" xmlns="http://www.w3.org/2000/svg" width="80" height="80">
<path d="M0 0 C1.43836751 0.11458693 2.87570966 0.24209116 4.3125 0.375 C5.51326172 0.47941406 5.51326172 0.47941406 6.73828125 0.5859375 C9 1 9 1 12 3 C11.18002466 15.1270037 11.18002466 15.1270037 9 20 C8.01 20.495 8.01 20.495 7 21 C7.73476562 22.00160156 7.73476562 22.00160156 8.484375 23.0234375 C10.39237774 26.77059751 10.3325451 29.43996327 10.25 33.625 C10.23453125 34.93726563 10.2190625 36.24953125 10.203125 37.6015625 C10 41 10 41 9 44 C6.37684968 45.31157516 4.76966564 44.89649988 1.875 44.5625 C0.96492188 44.46066406 0.05484375 44.35882813 -0.8828125 44.25390625 C-1.58148438 44.17011719 -2.28015625 44.08632813 -3 44 C-3.28617188 44.57234375 -3.57234375 45.1446875 -3.8671875 45.734375 C-5.578125 49.15625 -7.2890625 52.578125 -9 56 C-9.66 56 -10.32 56 -11 56 C-11 55.01 -11 54.02 -11 53 C-14.45925163 54.2491742 -17.14693203 55.67527795 -20 58 C-18.46790284 59.53209716 -17.06809947 59.20614547 -14.9375 59.25 C-7.05637317 59.13741247 -1.63601085 56.36762938 4 51 C4.66 50.01 5.32 49.02 6 48 C6.66 48 7.32 48 8 48 C7.46846576 51.95107118 5.69938095 53.55649937 2.75 56.125 C1.59757812 57.14980469 1.59757812 57.14980469 0.421875 58.1953125 C-4.35508636 61.75491919 -8.15437842 62.25700731 -14.0625 62.1875 C-15.27035156 62.18105469 -16.47820313 62.17460938 -17.72265625 62.16796875 C-21 62 -21 62 -23.21484375 61.3125 C-25.09347709 60.77587277 -25.09347709 60.77587277 -26.78125 62.14453125 C-27.3484375 62.69496094 -27.915625 63.24539062 -28.5 63.8125 C-30.35320733 65.58568247 -31.83622815 66.91841293 -34.140625 68.06640625 C-36.52995978 69.26609325 -37.02750933 70.56877332 -38 73 C-38.99 73 -39.98 73 -41 73 C-41.495 70.03 -41.495 70.03 -42 67 C-41.38125 66.95875 -40.7625 66.9175 -40.125 66.875 C-39.42375 66.58625 -38.7225 66.2975 -38 66 C-37.29373761 64.01363702 -36.63106429 62.01151741 -36 60 C-33.40916051 56.87312475 -30.5346159 54.9636755 -27 53 C-28.6396875 52.38125 -28.6396875 52.38125 -30.3125 51.75 C-33.55664977 50.3372251 -35.30359728 49.21423674 -37 46 C-39.47952569 38.952927 -39.59217771 33.95795069 -37 27 C-36.67322266 25.92685547 -36.67322266 25.92685547 -36.33984375 24.83203125 C-33.68403533 16.16800052 -29.70708992 10.80946309 -22 6 C-17.85280677 4.17523498 -14.51269051 3.78510998 -10 4 C-10 4.66 -10 5.32 -10 6 C-10.97839844 6.25523438 -10.97839844 6.25523438 -11.9765625 6.515625 C-17.36722504 8.01038098 -21.54753872 9.60206902 -26 13 C-25.13117187 12.566875 -24.26234375 12.13375 -23.3671875 11.6875 C-22.21476562 11.130625 -21.06234375 10.57375 -19.875 10 C-18.73804687 9.443125 -17.60109375 8.88625 -16.4296875 8.3125 C-12.98680467 6.99495031 -10.64330238 6.73422718 -7 7 C-8.305239 9.61047801 -9.35826574 9.68066423 -12.0625 10.625 C-12.79597656 10.88539062 -13.52945313 11.14578125 -14.28515625 11.4140625 C-14.85105469 11.60742188 -15.41695312 11.80078125 -16 12 C-11.9472484 12.98248524 -8.16138263 13.08159574 -4 13 C-3.90912109 12.06027344 -3.90912109 12.06027344 -3.81640625 11.1015625 C-3.73261719 10.28429688 -3.64882813 9.46703125 -3.5625 8.625 C-3.48128906 7.81289062 -3.40007813 7.00078125 -3.31640625 6.1640625 C-3 4 -3 4 -2 2 C-1.34 2 -0.68 2 0 2 C0 1.34 0 0.68 0 0 Z M0 4 C-0.33 4.66 -0.66 5.32 -1 6 C0.11375 6.309375 1.2275 6.61875 2.375 6.9375 C6 8 6 8 8 9 C8.59070014 7.05396726 8.59070014 7.05396726 9 5 C8.01732141 3.79438816 8.01732141 3.79438816 6.15234375 3.90234375 C4.1015625 3.93489583 2.05078125 3.96744792 0 4 Z M-31 17 C-30 19 -30 19 -30 19 Z M-16.8125 19.1875 C-18.06073571 21.00063966 -18.06073571 21.00063966 -19 23.125 C-20 25 -20 25 -23 26 C-23.73323796 28.01508358 -23.73323796 28.01508358 -24 30 C-21.55519921 29.81171228 -21.55519921 29.81171228 -19 29 C-17.63979849 27.03241727 -17.63979849 27.03241727 -17 25 C-16.01 25.33 -15.02 25.66 -14 26 C-10.76223489 23.76020432 -10.76223489 23.76020432 -8 21 C-8 20.34 -8 19.68 -8 19 C-12.5828789 17.79022401 -12.5828789 17.79022401 -16.8125 19.1875 Z M-5 17 C-5.99 17.66 -6.98 18.32 -8 19 C-7.34 19 -6.68 19 -6 19 C-8.21689838 23.43379675 -10.77728219 25.46636932 -15 28 C-11.92000054 31.67230705 -9.7517398 32.56802365 -5 33 C-3.10786631 30.61426621 -1.97608217 28.92824652 -1 26 C-1 28.31 -1 30.62 -1 33 C0.32 33 1.64 33 3 33 C4.23267348 31.99163938 4.23267348 31.99163938 4.09765625 29.93359375 C4.08605469 29.10988281 4.07445313 28.28617188 4.0625 27.4375 C4.05347656 26.61121094 4.04445313 25.78492188 4.03515625 24.93359375 C4.02355469 24.29550781 4.01195313 23.65742188 4 23 C3.21625 23.04125 2.4325 23.0825 1.625 23.125 C-1 23 -1 23 -3 21 C-3.69748583 19.68252676 -4.36959957 18.35085807 -5 17 Z M-28 20 C-28.33 20.66 -28.66 21.32 -29 22 C-28.34 22 -27.68 22 -27 22 C-27.33 21.34 -27.66 20.68 -28 20 Z M-32.5625 25.4375 C-34.67972527 29.21168417 -34.24437075 32.76424027 -34 37 C-31.99706653 33.99559979 -31.50728374 32.29006055 -30.875 28.8125 C-30.70742188 27.91144531 -30.53984375 27.01039062 -30.3671875 26.08203125 C-30.24601562 25.39496094 -30.12484375 24.70789063 -30 24 C-31.23120499 23.88715724 -31.23120499 23.88715724 -32.5625 25.4375 Z M-17 30 C-17.33 30.66 -17.66 31.32 -18 32 C-17.34 32 -16.68 32 -16 32 C-16.33 31.34 -16.66 30.68 -17 30 Z M-24 32 C-23.01 32.99 -22.02 33.98 -21 35 C-20.67 34.01 -20.34 33.02 -20 32 C-21.32 32 -22.64 32 -24 32 Z M-15 33 C-14.67 34.65 -14.34 36.3 -14 38 C-11.36 38.66 -8.72 39.32 -6 40 C-6 39.01 -6 38.02 -6 37 C-4.35 37 -2.7 37 -1 37 C-1.33 36.01 -1.66 35.02 -2 34 C-2.60328125 34.09539063 -3.2065625 34.19078125 -3.828125 34.2890625 C-5.02695312 34.45535156 -5.02695312 34.45535156 -6.25 34.625 C-7.43335938 34.79902344 -7.43335938 34.79902344 -8.640625 34.9765625 C-11.32152459 35.00319395 -12.72694089 34.36592084 -15 33 Z M-33 38 C-32 41 -32 41 -32 41 Z M-32 42 C-31 44 -31 44 -31 44 Z M-24 36 C-25.93443317 38.84475466 -25.99127818 40.10117309 -25.6875 43.625 C-25.18233562 46.8517308 -25.18233562 46.8517308 -24 49 C-23.34 49 -22.68 49 -22 49 C-22.515625 49.78375 -23.03125 50.5675 -23.5625 51.375 C-24.036875 52.24125 -24.51125 53.1075 -25 54 C-24.67 54.66 -24.34 55.32 -24 56 C-20.04 52.37 -16.08 48.74 -12 45 C-12.33 44.01 -12.66 43.02 -13 42 C-15.31 42.33 -17.62 42.66 -20 43 C-20.33 44.32 -20.66 45.64 -21 47 C-21.66 47 -22.32 47 -23 47 C-22.34 44.03 -21.68 41.06 -21 38 C-21.99 37.34 -22.98 36.68 -24 36 Z " fill="#E0B959" transform="translate(52,4)"/>
<path d="M0 0 C1.43836751 0.11458693 2.87570966 0.24209116 4.3125 0.375 C5.51326172 0.47941406 5.51326172 0.47941406 6.73828125 0.5859375 C9 1 9 1 12 3 C11.18002466 15.1270037 11.18002466 15.1270037 9 20 C8.01 20.495 8.01 20.495 7 21 C7.73476562 22.00160156 7.73476562 22.00160156 8.484375 23.0234375 C10.39237774 26.77059751 10.3325451 29.43996327 10.25 33.625 C10.23453125 34.93726563 10.2190625 36.24953125 10.203125 37.6015625 C10 41 10 41 9 44 C6.37684968 45.31157516 4.76966564 44.89649988 1.875 44.5625 C0.96492188 44.46066406 0.05484375 44.35882813 -0.8828125 44.25390625 C-1.58148438 44.17011719 -2.28015625 44.08632813 -3 44 C-3.28617188 44.57234375 -3.57234375 45.1446875 -3.8671875 45.734375 C-5.578125 49.15625 -7.2890625 52.578125 -9 56 C-9.66 56 -10.32 56 -11 56 C-11 55.01 -11 54.02 -11 53 C-14.45925163 54.2491742 -17.14693203 55.67527795 -20 58 C-18.46790284 59.53209716 -17.06809947 59.20614547 -14.9375 59.25 C-7.05637317 59.13741247 -1.63601085 56.36762938 4 51 C4.66 50.01 5.32 49.02 6 48 C6.66 48 7.32 48 8 48 C7.46846576 51.95107118 5.69938095 53.55649937 2.75 56.125 C1.59757812 57.14980469 1.59757812 57.14980469 0.421875 58.1953125 C-4.35508636 61.75491919 -8.15437842 62.25700731 -14.0625 62.1875 C-15.27035156 62.18105469 -16.47820313 62.17460938 -17.72265625 62.16796875 C-21 62 -21 62 -23.20703125 61.3046875 C-25.11043968 60.77188458 -25.11043968 60.77188458 -26.8515625 62.21484375 C-27.43679687 62.78332031 -28.02203125 63.35179687 -28.625 63.9375 C-31.82004556 67 -31.82004556 67 -34 67 C-32.45615972 63.31005209 -30.21186057 60.9760549 -27.375 58.1875 C-26.48683594 57.31351563 -25.59867188 56.43953125 -24.68359375 55.5390625 C-21.71424937 52.72963914 -18.65819813 50.06214615 -15.49609375 47.47265625 C-13.73503374 45.9622024 -13.73503374 45.9622024 -13 43 C-16.465 43.495 -16.465 43.495 -20 44 C-20.33 44.99 -20.66 45.98 -21 47 C-21.66 47 -22.32 47 -23 47 C-22.91621094 46.39671875 -22.83242188 45.7934375 -22.74609375 45.171875 C-22.59333984 43.97304687 -22.59333984 43.97304687 -22.4375 42.75 C-22.33308594 41.96109375 -22.22867187 41.1721875 -22.12109375 40.359375 C-21.99972651 37.99467126 -22.30366743 36.2488963 -23 34 C-22.19755859 34.43892578 -22.19755859 34.43892578 -21.37890625 34.88671875 C-18.61102911 36.18203071 -15.88671898 37.01215433 -12.9375 37.8125 C-11.89464844 38.10769531 -10.85179687 38.40289062 -9.77734375 38.70703125 C-6.99970704 39.32517677 -6.99970704 39.32517677 -5.25390625 37.63671875 C-4.63322266 36.82654297 -4.63322266 36.82654297 -4 36 C-3.01 35.505 -3.01 35.505 -2 35 C-1.34 34.34 -0.68 33.68 0 33 C0.99 32.67 1.98 32.34 3 32 C3.33 29.03 3.66 26.06 4 23 C2.35 23.33 0.7 23.66 -1 24 C-1.495 23.01 -1.495 23.01 -2 22 C-1.34 22 -0.68 22 0 22 C0 21.34 0 20.68 0 20 C2.64738916 18.5393715 3.89448334 18 7 18 C7 15.69 7 13.38 7 11 C6.34 11 5.68 11 5 11 C5 10.01 5 9.02 5 8 C2.69 7.67 0.38 7.34 -2 7 C-2 7.99 -2 8.98 -2 10 C-2.66 10 -3.32 10 -4 10 C-3.34 7.36 -2.68 4.72 -2 2 C-1.34 2 -0.68 2 0 2 C0 1.34 0 0.68 0 0 Z M0 4 C-0.33 4.66 -0.66 5.32 -1 6 C0.11375 6.309375 1.2275 6.61875 2.375 6.9375 C6 8 6 8 8 9 C8.59070014 7.05396726 8.59070014 7.05396726 9 5 C8.01732141 3.79438816 8.01732141 3.79438816 6.15234375 3.90234375 C4.1015625 3.93489583 2.05078125 3.96744792 0 4 Z " fill="#E7E38B" transform="translate(52,4)"/>
<path d="M0 0 C0.53367187 0.30035156 1.06734375 0.60070313 1.6171875 0.91015625 C5.35403995 2.6193068 9.31598032 3.26442122 13.3203125 4.12109375 C16 5 16 5 18 8 C17.60026962 13.35854781 12.76379298 16.65440624 9 20 C7.04515559 21.47535427 5.10334983 22.7379901 3 24 C4.53209716 25.53209716 5.93190053 25.20614547 8.0625 25.25 C15.94362683 25.13741247 21.36398915 22.36762938 27 17 C27.66 16.01 28.32 15.02 29 14 C29.66 14 30.32 14 31 14 C30.46846576 17.95107118 28.69938095 19.55649937 25.75 22.125 C24.98171875 22.80820312 24.2134375 23.49140625 23.421875 24.1953125 C18.64491364 27.75491919 14.84562158 28.25700731 8.9375 28.1875 C7.72964844 28.18105469 6.52179687 28.17460938 5.27734375 28.16796875 C2 28 2 28 -0.20703125 27.3046875 C-2.11043968 26.77188458 -2.11043968 26.77188458 -3.8515625 28.21484375 C-4.43679687 28.78332031 -5.02203125 29.35179688 -5.625 29.9375 C-8.82004556 33 -8.82004556 33 -11 33 C-9.45615972 29.31005209 -7.21186057 26.9760549 -4.375 24.1875 C-3.48683594 23.31351563 -2.59867188 22.43953125 -1.68359375 21.5390625 C1.28575063 18.72963914 4.34180187 16.06214615 7.50390625 13.47265625 C9.26496626 11.9622024 9.26496626 11.9622024 10 9 C7.69 9.33 5.38 9.66 3 10 C2.67 10.99 2.34 11.98 2 13 C1.34 13 0.68 13 0 13 C0.08378906 12.39671875 0.16757812 11.7934375 0.25390625 11.171875 C0.40666016 9.97304688 0.40666016 9.97304688 0.5625 8.75 C0.66691406 7.96109375 0.77132813 7.1721875 0.87890625 6.359375 C1.00027349 3.99467126 0.69633257 2.2488963 0 0 Z " fill="#30E9E7" transform="translate(29,38)"/>
<path d="M0 0 C0 0.66 0 1.32 0 2 C-0.97839844 2.25523438 -0.97839844 2.25523438 -1.9765625 2.515625 C-7.36722504 4.01038098 -11.54753872 5.60206902 -16 9 C-15.13117187 8.566875 -14.26234375 8.13375 -13.3671875 7.6875 C-12.21476562 7.130625 -11.06234375 6.57375 -9.875 6 C-8.73804687 5.443125 -7.60109375 4.88625 -6.4296875 4.3125 C-2.98680467 2.99495031 -0.64330238 2.73422718 3 3 C1.5270792 5.9458416 -0.51118775 6.06855821 -3.5625 7.1875 C-9.46837454 9.57930905 -13.66529719 12.3549605 -18 17 C-18.52722656 17.556875 -19.05445313 18.11375 -19.59765625 18.6875 C-22.79692765 22.53731962 -23.64800887 25.67383805 -23.375 30.65625 C-22.84895416 33.94403651 -21.85613755 36.95497801 -20.65625 40.0546875 C-20 42 -20 42 -20 45 C-20.66 45 -21.32 45 -22 45 C-22.33 45.66 -22.66 46.32 -23 47 C-27.19281045 42.3879085 -28.74459428 38.12872012 -29.25 31.9375 C-28.96948081 28.64139947 -28.15536734 26.10124916 -27 23 C-26.67322266 21.92685547 -26.67322266 21.92685547 -26.33984375 20.83203125 C-23.68403533 12.16800052 -19.70708992 6.80946309 -12 2 C-7.85280677 0.17523498 -4.51269051 -0.21489002 0 0 Z M-21 13 C-20 15 -20 15 -20 15 Z " fill="#E78339" transform="translate(42,8)"/>
<path d="M0 0 C6.27455919 0.59193955 6.27455919 0.59193955 9 2.125 C10.68212223 5.27897918 9.90987645 7.66378636 9 11 C6.4664092 12.94241961 5.21812786 13 2 13 C2 13.66 2 14.32 2 15 C0.0625 14.6875 0.0625 14.6875 -2 14 C-2.33 13.01 -2.66 12.02 -3 11 C-3.9590625 11.2165625 -3.9590625 11.2165625 -4.9375 11.4375 C-8.93844788 12.17236798 -12.95504896 12.58581111 -17 13 C-17 13.66 -17 14.32 -17 15 C-17.66 15 -18.32 15 -19 15 C-18.125 8.25 -18.125 8.25 -17 6 C-12.05 6 -7.1 6 -2 6 C-1.34 4.02 -0.68 2.04 0 0 Z " fill="#F8D74B" transform="translate(50,11)"/>
<path d="M0 0 C2.64 0 5.28 0 8 0 C8.76173392 4.3164922 9.16063604 7.74433453 8 12 C4.7 11.67 1.4 11.34 -2 11 C-2.66 12.32 -3.32 13.64 -4 15 C-5.33333333 17.66666667 -6.66666667 20.33333333 -8 23 C-8.66 23 -9.32 23 -10 23 C-10.9375 20.9375 -10.9375 20.9375 -11 18 C-9.47265625 16.35546875 -9.47265625 16.35546875 -7.5 14.625 C-5.51247578 12.92130878 -5.51247578 12.92130878 -4 11 C-3.87885396 7.1563555 -3.87885396 7.1563555 -5 4 C-4.360625 3.71125 -3.72125 3.4225 -3.0625 3.125 C-0.84793921 2.17176549 -0.84793921 2.17176549 0 0 Z " fill="#F2E976" transform="translate(51,37)"/>
<path d="M0 0 C0.66 0 1.32 0 2 0 C1.44449305 3.59905908 0.25112752 4.99909799 -2.5625 7.25 C-3.20316406 7.77078125 -3.84382813 8.2915625 -4.50390625 8.828125 C-4.99761719 9.21484375 -5.49132813 9.6015625 -6 10 C-3.34979932 11.89300048 -1.67156531 12.98401035 1.625 13.0625 C5.01921606 11.54403492 5.64548621 9.35063937 7 6 C7.33 6 7.66 6 8 6 C8.31577173 9.473489 8.4218681 11.37563521 6.4375 14.3125 C3.25602431 16.51506009 0.8408179 16.86033389 -3 17 C-3.99 16.34 -4.98 15.68 -6 15 C-6 16.32 -6 17.64 -6 19 C-7.65 18.67 -9.3 18.34 -11 18 C-11.33 16.35 -11.66 14.7 -12 13 C-13.98 13 -15.96 13 -18 13 C-18.33 13.66 -18.66 14.32 -19 15 C-19 13.35 -19 11.7 -19 10 C-18.01 9.67 -17.02 9.34 -16 9 C-16 9.66 -16 10.32 -16 11 C-11.76915097 9.31192092 -11.76915097 9.31192092 -9 6 C-8.236875 5.896875 -7.47375 5.79375 -6.6875 5.6875 C-3.10631366 4.77138256 -2.15510944 2.89825063 0 0 Z M-9 11 C-9.33 11.66 -9.66 12.32 -10 13 C-9.34 13 -8.68 13 -8 13 C-8.33 12.34 -8.66 11.68 -9 11 Z " fill="#D0C173" transform="translate(44,23)"/>
<path d="M0 0 C0.53367187 0.30035156 1.06734375 0.60070313 1.6171875 0.91015625 C5.35403995 2.6193068 9.31598032 3.26442122 13.3203125 4.12109375 C16 5 16 5 18 8 C17.625 10.1875 17.625 10.1875 17 12 C16.67 12 16.34 12 16 12 C15.67 10.35 15.34 8.7 15 7 C13.68 6.67 12.36 6.34 11 6 C11.33 7.65 11.66 9.3 12 11 C11.34 10.34 10.68 9.68 10 9 C6.40320934 9.32326553 6.40320934 9.32326553 3 10 C2.67 10.99 2.34 11.98 2 13 C1.34 13 0.68 13 0 13 C0.08378906 12.39671875 0.16757812 11.7934375 0.25390625 11.171875 C0.35574219 10.37265625 0.45757813 9.5734375 0.5625 8.75 C0.66691406 7.96109375 0.77132813 7.1721875 0.87890625 6.359375 C1.00027349 3.99467126 0.69633257 2.2488963 0 0 Z " fill="#40DFDF" transform="translate(29,38)"/>
<path d="M0 0 C2.67975423 1.84233103 3.03530216 3.2778122 4 6.375 C4.265625 9.8203125 4.265625 9.8203125 4.25 13.5 C4.25515625 14.71945313 4.2603125 15.93890625 4.265625 17.1953125 C4 20.375 4 20.375 2 23.375 C1.83197949 21.91682203 1.66562857 20.4584516 1.5 19 C1.4071875 18.18789063 1.314375 17.37578125 1.21875 16.5390625 C1 14.375 1 14.375 1 12.375 C-0.65 12.705 -2.3 13.035 -4 13.375 C-3.67 12.715 -3.34 12.055 -3 11.375 C-2.77377919 9.67136178 -2.59111527 7.96171299 -2.4375 6.25 C-2.35371094 5.33992188 -2.26992188 4.42984375 -2.18359375 3.4921875 C-2.12300781 2.79351563 -2.06242187 2.09484375 -2 1.375 C-2.66 1.045 -3.32 0.715 -4 0.375 C-2 -0.625 -2 -0.625 0 0 Z " fill="#DAD78B" transform="translate(58,24.625)"/>
<path d="M0 0 C0 0.66 0 1.32 0 2 C-0.97839844 2.25523438 -0.97839844 2.25523438 -1.9765625 2.515625 C-10.37324572 4.84390884 -15.7130292 7.85544487 -21 15 C-22.05794332 16.96996343 -23.07836462 18.96270075 -24 21 C-24.66 21 -25.32 21 -26 21 C-25.44772865 15.10910564 -22.35828093 10.20785561 -18.1015625 6.22265625 C-12.35265558 1.7182445 -7.41183035 -0.3529443 0 0 Z " fill="#C3A549" transform="translate(42,8)"/>
<path d="M0 0 C0.66 0 1.32 0 2 0 C1.46846576 3.95107118 -0.30061905 5.55649937 -3.25 8.125 C-4.01828125 8.80820312 -4.7865625 9.49140625 -5.578125 10.1953125 C-10.39499428 13.78465703 -14.22927068 14.25656272 -20.1875 14.1875 C-21.41855469 14.18105469 -22.64960937 14.17460938 -23.91796875 14.16796875 C-27 14 -27 14 -29 13 C-29 12.34 -29 11.68 -29 11 C-28.154375 11.03480469 -27.30875 11.06960937 -26.4375 11.10546875 C-16.21895952 11.34932028 -9.54408807 10.18484578 -2 3 C-1.34 2.01 -0.68 1.02 0 0 Z " fill="#CF864D" transform="translate(58,52)"/>
<path d="M0 0 C0.99 0.33 1.98 0.66 3 1 C3 2.65 3 4.3 3 6 C1.02 6 -0.96 6 -3 6 C-3.33 6.66 -3.66 7.32 -4 8 C-3.34 8 -2.68 8 -2 8 C-2 8.66 -2 9.32 -2 10 C-1.01 10.33 -0.02 10.66 1 11 C0.01 11 -0.98 11 -2 11 C-2.28617188 11.57234375 -2.57234375 12.1446875 -2.8671875 12.734375 C-4.578125 16.15625 -6.2890625 19.578125 -8 23 C-8.66 23 -9.32 23 -10 23 C-10.9375 20.9375 -10.9375 20.9375 -11 18 C-9.47265625 16.35546875 -9.47265625 16.35546875 -7.5 14.625 C-5.51247578 12.92130878 -5.51247578 12.92130878 -4 11 C-3.87885396 7.1563555 -3.87885396 7.1563555 -5 4 C-4.360625 3.71125 -3.72125 3.4225 -3.0625 3.125 C-0.84793921 2.17176549 -0.84793921 2.17176549 0 0 Z " fill="#CACB82" transform="translate(51,37)"/>
<path d="M0 0 C-1.79331469 3.58662938 -6.32070005 4.2111047 -9.921875 5.5859375 C-13.07097137 7.0326036 -15.32221339 8.83030624 -18 11 C-20.8125 11.25 -20.8125 11.25 -23 11 C-17.42870068 4.23485082 -8.84162973 -0.5666022 0 0 Z " fill="#D26A2F" transform="translate(45,11)"/>
<path d="M0 0 C0.66 0 1.32 0 2 0 C2.06058594 1.13179687 2.12117188 2.26359375 2.18359375 3.4296875 C2.26799917 4.91147145 2.35264717 6.3932416 2.4375 7.875 C2.47681641 8.62136719 2.51613281 9.36773437 2.55664062 10.13671875 C2.71573624 14.19986864 2.71573624 14.19986864 4 18 C3.67 18.66 3.34 19.32 3 20 C2.01 20 1.02 20 0 20 C-0.66 14.39 -1.32 8.78 -2 3 C-1.34 3 -0.68 3 0 3 C0 2.01 0 1.02 0 0 Z " fill="#F7BF3F" transform="translate(23,35)"/>
<path d="M0 0 C0.66 0.33 1.32 0.66 2 1 C1.67 1.66 1.34 2.32 1 3 C1.66 3.33 2.32 3.66 3 4 C0.87941855 5.67257128 -1.24604076 7.33815418 -3.375 9 C-4.27992187 9.71542969 -4.27992187 9.71542969 -5.203125 10.4453125 C-9.7734375 14 -9.7734375 14 -12 14 C-10.41332422 10.09714233 -7.86649519 7.66479018 -4.875 4.75 C-3.96492188 3.85796875 -3.05484375 2.9659375 -2.1171875 2.046875 C-1.41851562 1.37140625 -0.71984375 0.6959375 0 0 Z " fill="#38E1DC" transform="translate(30,57)"/>
<path d="M0 0 C0.66 0 1.32 0 2 0 C1.67 2.97 1.34 5.94 1 9 C-1.31 9.33 -3.62 9.66 -6 10 C-6 9.01 -6 8.02 -6 7 C-5.34 7 -4.68 7 -4 7 C-3.71125 6.21625 -3.4225 5.4325 -3.125 4.625 C-2 2 -2 2 0 0 Z " fill="#F6B33D" transform="translate(28,23)"/>
<path d="M0 0 C0.33 0 0.66 0 1 0 C1.19335938 0.81984375 1.38671875 1.6396875 1.5859375 2.484375 C1.84632812 3.56203125 2.10671875 4.6396875 2.375 5.75 C2.63023438 6.81734375 2.88546875 7.8846875 3.1484375 8.984375 C3.86887573 11.93789708 3.86887573 11.93789708 5.1640625 14.203125 C6 16 6 16 5 19 C0.72085301 14.29293831 -0.83556569 9.95981755 -1.1875 3.625 C-1 1 -1 1 0 0 Z " fill="#C48860" transform="translate(14,36)"/>
<path d="M0 0 C1.65 0.33 3.3 0.66 5 1 C5.3125 3.75 5.3125 3.75 5 7 C2.5 9.375 2.5 9.375 0 11 C-1.37432457 7.18243176 -0.67975039 3.92744671 0 0 Z " fill="#1CF4F7" transform="translate(40,44)"/>
<path d="M0 0 C1.134375 0.020625 2.26875 0.04125 3.4375 0.0625 C3.4375 1.0525 3.4375 2.0425 3.4375 3.0625 C2.1175 3.0625 0.7975 3.0625 -0.5625 3.0625 C-0.8925 4.0525 -1.2225 5.0425 -1.5625 6.0625 C-2.2225 6.0625 -2.8825 6.0625 -3.5625 6.0625 C-3.5625 6.7225 -3.5625 7.3825 -3.5625 8.0625 C-4.2225 8.0625 -4.8825 8.0625 -5.5625 8.0625 C-4.54651535 0.07976343 -4.54651535 0.07976343 0 0 Z " fill="#F6C240" transform="translate(36.5625,17.9375)"/>
<path d="M0 0 C0.66 0 1.32 0 2 0 C1.44172616 3.71087906 0.03559718 5.29951225 -2.75 7.75 C-3.76320313 8.67039062 -3.76320313 8.67039062 -4.796875 9.609375 C-7.41083875 11.25932375 -8.96521706 11.27588936 -12 11 C-9.4505484 8.96043872 -6.90268725 6.92531812 -4.3125 4.9375 C-1.81828913 3.03243982 -1.81828913 3.03243982 0 0 Z " fill="#BCA770" transform="translate(58,52)"/>
<path d="M0 0 C1.4540625 0.0309375 1.4540625 0.0309375 2.9375 0.0625 C2.9375 3.0625 2.9375 3.0625 1.6875 4.75 C-0.0625 6.0625 -0.0625 6.0625 -4.0625 6.0625 C-4.105221 4.39638095 -4.10313832 2.72867115 -4.0625 1.0625 C-3.0625 0.0625 -3.0625 0.0625 0 0 Z " fill="#EEB542" transform="translate(21.0625,60.9375)"/>
<path d="M0 0 C0.99 0.33 1.98 0.66 3 1 C3 2.65 3 4.3 3 6 C1.02 6 -0.96 6 -3 6 C-3.33 6.66 -3.66 7.32 -4 8 C-3.34 8 -2.68 8 -2 8 C-2 8.66 -2 9.32 -2 10 C-1.01 10.33 -0.02 10.66 1 11 C-3.875 10.125 -3.875 10.125 -5 9 C-5.04063832 7.33382885 -5.042721 5.66611905 -5 4 C-4.360625 3.71125 -3.72125 3.4225 -3.0625 3.125 C-0.84793921 2.17176549 -0.84793921 2.17176549 0 0 Z " fill="#D6CF7C" transform="translate(51,37)"/>
<path d="M0 0 C1.65 0 3.3 0 5 0 C3.68 0.33 2.36 0.66 1 1 C0.67 2.32 0.34 3.64 0 5 C1.98 5.66 3.96 6.32 6 7 C5.67 8.32 5.34 9.64 5 11 C5 10.01 5 9.02 5 8 C2.69 7.67 0.38 7.34 -2 7 C-2 7.99 -2 8.98 -2 10 C-2.66 10 -3.32 10 -4 10 C-3.34 7.36 -2.68 4.72 -2 2 C-1.34 2 -0.68 2 0 2 C0 1.34 0 0.68 0 0 Z " fill="#DAD17A" transform="translate(52,4)"/>
<path d="M0 0 C0 0.66 0 1.32 0 2 C-1.58298026 2.4803318 -3.16639978 2.95921612 -4.75 3.4375 C-6.07257812 3.83775391 -6.07257812 3.83775391 -7.421875 4.24609375 C-9.60565835 4.88468494 -11.78835498 5.46775833 -14 6 C-14 5.01 -14 4.02 -14 3 C-9.07015675 0.96006486 -5.42039575 -0.40652968 0 0 Z " fill="#AD8953" transform="translate(42,8)"/>
<path d="M0 0 C-1.76132454 4.00301032 -4.26132483 7.6028977 -7 11 C-7.33 11 -7.66 11 -8 11 C-7.63265306 4.63265306 -7.63265306 4.63265306 -4.5625 1.5625 C-2 0 -2 0 0 0 Z " fill="#DC6A2C" transform="translate(26,21)"/>
<path d="M0 0 C3.66881155 0.70554068 6.70450534 2.27735506 10 4 C10 4.33 10 4.66 10 5 C7.03 5 4.06 5 1 5 C1 4.34 1 3.68 1 3 C0.34 3 -0.32 3 -1 3 C-0.67 2.01 -0.34 1.02 0 0 Z " fill="#F5E25A" transform="translate(48,42)"/>
<path d="M0 0 C0.66 0 1.32 0 2 0 C1.74433121 3.45152861 0.73802926 4.24488569 -1.875 6.6875 C-5 9 -5 9 -8 10 C-8.33 8.68 -8.66 7.36 -9 6 C-7.88625 5.9071875 -7.88625 5.9071875 -6.75 5.8125 C-3.18132923 4.75812 -2.17577376 2.92604058 0 0 Z " fill="#AEAC7E" transform="translate(44,23)"/>
<path d="M0 0 C7.75 -0.125 7.75 -0.125 10 1 C10 1.99 10 2.98 10 4 C11.32 4.33 12.64 4.66 14 5 C10.26562152 5.87867729 6.83225427 6.08912219 3 6 C3 5.34 3 4.68 3 4 C4.32 4 5.64 4 7 4 C7 3.01 7 2.02 7 1 C4.69 1 2.38 1 0 1 C0 0.67 0 0.34 0 0 Z " fill="#E1CA65" transform="translate(33,17)"/>
<path d="M0 0 C2 3 2 3 2 5 C0.35 5.33 -1.3 5.66 -3 6 C-3 6.66 -3 7.32 -3 8 C-4.65 8.33 -6.3 8.66 -8 9 C-8.33 8.34 -8.66 7.68 -9 7 C-8.34 7 -7.68 7 -7 7 C-7 6.34 -7 5.68 -7 5 C-4.35261084 3.5393715 -3.10551666 3 0 3 C0 2.01 0 1.02 0 0 Z " fill="#DAD17F" transform="translate(59,19)"/>
<path d="M0 0 C0.99 0.33 1.98 0.66 3 1 C2.25749403 5.08378283 1.17076699 9.01939223 0 13 C-0.33 13 -0.66 13 -1 13 C-1.02696365 11.20841511 -1.04637917 9.41671527 -1.0625 7.625 C-1.07410156 6.62726562 -1.08570312 5.62953125 -1.09765625 4.6015625 C-1 2 -1 2 0 0 Z " fill="#EBCF56" transform="translate(26,36)"/>
<path d="M0 0 C1.04561999 3.13685998 1 5.72365939 1 9 C1.66 9.33 2.32 9.66 3 10 C1.68 9.67 0.36 9.34 -1 9 C-1 7.68 -1 6.36 -1 5 C-2.65 5 -4.3 5 -6 5 C-6 4.01 -6 3.02 -6 2 C-4.02 1.34 -2.04 0.68 0 0 Z " fill="#ECD45B" transform="translate(49,16)"/>
<path d="M0 0 C2.4375 0.6875 2.4375 0.6875 5 2 C5.8125 4.625 5.8125 4.625 6 7 C4.35 6.67 2.7 6.34 1 6 C0.67 4.02 0.34 2.04 0 0 Z " fill="#D3C580" transform="translate(32,35)"/>
<path d="M0 0 C0.66 0 1.32 0 2 0 C0.68775452 3.93673644 -0.91910327 6.22719294 -4 9 C-5.32 8.34 -6.64 7.68 -8 7 C-7.236875 6.5875 -6.47375 6.175 -5.6875 5.75 C-3.04673684 4.03043329 -1.81616784 2.50804131 0 0 Z " fill="#C8B26C" transform="translate(28,53)"/>
<path d="M0 0 C0.99 0.33 1.98 0.66 3 1 C3.05422947 2.4370809 3.09289723 3.87475462 3.125 5.3125 C3.14820313 6.11300781 3.17140625 6.91351563 3.1953125 7.73828125 C3 10 3 10 1 13 C0.83052421 11.58366664 0.66454493 10.16691467 0.5 8.75 C0.4071875 7.96109375 0.314375 7.1721875 0.21875 6.359375 C0 4 0 4 0 0 Z " fill="#EFEC83" transform="translate(59,35)"/>
<path d="M0 0 C0.33 1.65 0.66 3.3 1 5 C-0.98 5 -2.96 5 -5 5 C-5 3.68 -5 2.36 -5 1 C-3 0 -3 0 0 0 Z " fill="#F4D350" transform="translate(59,37)"/>
<path d="M0 0 C0.33 0.99 0.66 1.98 1 3 C1.99 3 2.98 3 4 3 C4 3.66 4 4.32 4 5 C3.34 5 2.68 5 2 5 C2 5.99 2 6.98 2 8 C1.34 8 0.68 8 0 8 C-0.33 8.99 -0.66 9.98 -1 11 C-1.0270043 9.54176788 -1.04639787 8.08339325 -1.0625 6.625 C-1.07410156 5.81289063 -1.08570312 5.00078125 -1.09765625 4.1640625 C-1 2 -1 2 0 0 Z " fill="#EABA51" transform="translate(21,30)"/>
<path d="M0 0 C2.3125 1.375 2.3125 1.375 4 3 C3.01 3 2.02 3 1 3 C1 4.65 1 6.3 1 8 C0.34 8 -0.32 8 -1 8 C-1.33 6.35 -1.66 4.7 -2 3 C-2.99 2.67 -3.98 2.34 -5 2 C-2.75 0.8125 -2.75 0.8125 0 0 Z " fill="#FAD242" transform="translate(51,17)"/>
<path d="M0 0 C1.32 0.66 2.64 1.32 4 2 C3.2884375 2.6496875 3.2884375 2.6496875 2.5625 3.3125 C0.76313043 5.02309613 0.76313043 5.02309613 0 8 C-0.66 8 -1.32 8 -2 8 C-1.125 1.125 -1.125 1.125 0 0 Z " fill="#DECA61" transform="translate(31,43)"/>
<path d="M0 0 C-1 2 -1 2 -3.06640625 2.8515625 C-4.30197266 3.23441406 -4.30197266 3.23441406 -5.5625 3.625 C-6.80193359 4.01558594 -6.80193359 4.01558594 -8.06640625 4.4140625 C-8.70449219 4.60742188 -9.34257813 4.80078125 -10 5 C-10.33 4.01 -10.66 3.02 -11 2 C-7.17010894 0.19769832 -4.21878192 -0.19622241 0 0 Z " fill="#A57549" transform="translate(45,11)"/>
<path d="M0 0 C0.33 0.99 0.66 1.98 1 3 C1.99 3.33 2.98 3.66 4 4 C2.68 5.32 1.36 6.64 0 8 C0 7.34 0 6.68 0 6 C-0.66 6 -1.32 6 -2 6 C-1.34 4.02 -0.68 2.04 0 0 Z " fill="#E2B551" transform="translate(16,64)"/>
<path d="M0 0 C3.3 0.33 6.6 0.66 10 1 C9.67 1.66 9.34 2.32 9 3 C2.25 3.125 2.25 3.125 0 2 C0 1.34 0 0.68 0 0 Z " fill="#CC9C65" transform="translate(29,63)"/>
<path d="M0 0 C0.66 0 1.32 0 2 0 C1.44271087 3.34373475 0.64826111 6.03312999 -1 9 C-1.66 9 -2.32 9 -3 9 C-2.44271087 5.65626525 -1.64826111 2.96687001 0 0 Z " fill="#CCA559" transform="translate(19,20)"/>
<path d="M0 0 C2.31 0.33 4.62 0.66 7 1 C7 1.66 7 2.32 7 3 C4.69 3 2.38 3 0 3 C0 2.01 0 1.02 0 0 Z " fill="#F1DF64" transform="translate(53,5)"/>
<path d="M0 0 C2.125 0.9375 2.125 0.9375 4 2 C4 3.32 4 4.64 4 6 C3.34 6 2.68 6 2 6 C0.61767557 4.37373596 -0.71937515 2.7074998 -2 1 C-1.34 0.67 -0.68 0.34 0 0 Z " fill="#F1EC7A" transform="translate(56,24)"/>
<path d="M0 0 C2.31 0 4.62 0 7 0 C7 0.66 7 1.32 7 2 C4.35261084 3.4606285 3.10551666 4 0 4 C0 2.68 0 1.36 0 0 Z " fill="#EED559" transform="translate(52,20)"/>
<path d="M0 0 C1.9451 2.91765 2.45276317 4.62537285 3 8 C2.01 7.67 1.02 7.34 0 7 C-1.17755913 4.05610218 -1.03348696 3.10046087 0 0 Z " fill="#DE6C35" transform="translate(19,45)"/>
</svg>
